<svg width="513" height="100" viewBox="0 0 513 100" fill="none" xmlns="http://www.w3.org/2000/svg">
<path d="M49.919 99.9107C22.9428 99.9107 0.994934 77.9642 0.994934 50.9879C0.994934 24.0117 22.9428 2.06519 49.919 2.06519C65.6115 2.06519 80.4593 9.67533 89.6378 22.4214L71.5303 35.4609C66.5332 28.5208 58.4546 24.378 49.919 24.378C35.2455 24.378 23.3088 36.3153 23.3088 50.9882C23.3088 65.6603 35.2461 77.5984 49.919 77.5984C57.9431 77.5984 65.46 74.0285 70.5434 67.8039L87.8263 81.9169C78.4876 93.3529 64.6716 99.9107 49.919 99.9107Z" fill="#950D51"/>
<path d="M133.658 99.9107C114.828 99.9107 99.5082 84.5909 99.5082 65.7593C99.5082 46.929 114.828 31.6079 133.658 31.6079C152.49 31.6079 167.81 46.9277 167.81 65.7593C167.81 84.5895 152.49 99.9107 133.658 99.9107ZM133.658 52.062C126.106 52.062 119.961 58.2067 119.961 65.7593C119.961 73.3122 126.106 79.4566 133.658 79.4566C141.212 79.4566 147.357 73.3119 147.357 65.7593C147.357 58.2064 141.212 52.062 133.658 52.062Z" fill="#950D51"/>
<path d="M215.882 31.6187C197.434 31.6187 182.424 46.6287 182.424 65.0768V98.4665H202.877V65.0768C202.877 57.9061 208.711 52.0719 215.882 52.0719C223.052 52.0719 228.886 57.9062 228.886 65.0768V98.4665H249.339V65.0768C249.339 46.6287 234.33 31.6187 215.882 31.6187Z" fill="#950D51"/>
<path d="M298.066 99.9911C279.234 99.9911 263.915 84.6713 263.915 65.8397C263.915 47.0095 279.234 31.6884 298.066 31.6884C316.898 31.6884 332.217 47.0081 332.217 65.8397C332.217 84.67 316.898 99.9911 298.066 99.9911ZM298.066 52.1424C290.512 52.1424 284.367 58.2871 284.367 65.8397C284.367 73.3926 290.512 79.537 298.066 79.537C305.619 79.537 311.763 73.3923 311.763 65.8397C311.763 58.2868 305.619 52.1424 298.066 52.1424Z" fill="#950D51"/>
<path d="M311.757 0.000244141H332.209V98.5336H311.757V0.000244141Z" fill="#C01860"/>
<path d="M311.757 34.5686V97.0921C323.782 91.8016 332.209 79.7891 332.209 65.8303C332.209 51.8716 323.782 39.8585 311.757 34.5686Z" fill="#E63B78"/>
<path d="M396.515 32.9998V66.3895C396.515 73.5601 390.681 79.3944 383.51 79.3944C376.339 79.3944 370.505 73.5601 370.505 66.3895V32.9998H350.052V66.3895C350.052 84.8376 365.062 99.8476 383.511 99.8476C401.959 99.8476 416.969 84.8376 416.969 66.3895V32.9998H396.515Z" fill="#950D51"/>
<path d="M434.596 33.1205H455.049V98.5551H434.596V33.1205Z" fill="#950D51"/>
<path d="M456.316 13.2751C456.316 14.7838 456.019 16.2777 455.441 17.6715C454.864 19.0653 454.018 20.3318 452.951 21.3986C451.884 22.4654 450.618 23.3117 449.224 23.889C447.83 24.4664 446.336 24.7635 444.828 24.7635C443.319 24.7635 441.825 24.4664 440.431 23.889C439.037 23.3117 437.771 22.4654 436.704 21.3986C435.637 20.3318 434.791 19.0653 434.214 17.6715C433.636 16.2777 433.339 14.7838 433.339 13.2751C433.339 10.2282 434.549 7.30601 436.704 5.15152C438.858 2.99702 441.781 1.78662 444.828 1.78662C447.874 1.78662 450.797 2.99702 452.951 5.15152C455.106 7.30601 456.316 10.2282 456.316 13.2751Z" fill="#C01860"/>
<path d="M473.201 33.5361H508.796V50.2706H473.201V33.5361Z" fill="#C01860"/>
<path d="M498.437 99.9911C484.523 99.9911 473.206 88.6722 473.206 74.7608V10.2192H493.659V74.7608C493.659 77.3946 495.802 79.5381 498.436 79.5381C499.691 79.5381 500.623 79.0669 501.182 78.671L512.988 95.3733C508.714 98.3949 503.682 99.9911 498.437 99.9911Z" fill="#950D51"/>
<path d="M473.201 33.5361H493.654V50.2706H473.201V33.5361Z" fill="#E63B78"/>
</svg>
