<svg width="798" height="599" viewBox="0 0 798 599" fill="none" xmlns="http://www.w3.org/2000/svg">
<g clip-path="url(#clip0_21_460)">
<path d="M553.824 60C570.392 60 583.824 46.5685 583.824 30C583.824 13.4315 570.392 0 553.824 0C537.255 0 523.824 13.4315 523.824 30C523.824 46.5685 537.255 60 553.824 60Z" fill="#950D51"/>
<path d="M634.242 572.816L623.437 573.039L617.414 530.544L633.36 530.214L634.242 572.816Z" fill="#FFB6B6"/>
<path d="M600.143 591C600.201 593.667 602.407 595.784 605.073 595.732L626.555 595.285L630.092 587.555L631.696 595.174L639.802 595.012L636.959 567.752L634.135 567.647L622.612 567.189L618.895 567.049L619.055 574.78L602.145 586.984C600.859 587.913 600.111 589.414 600.143 591Z" fill="#2F2E41"/>
<path d="M706.953 572.816L696.148 573.039L690.125 530.544L706.071 530.214L706.953 572.816Z" fill="#FFB6B6"/>
<path d="M672.855 591C672.913 593.667 675.118 595.784 677.785 595.732L699.266 595.285L702.803 587.555L704.407 595.174L712.513 595.012L709.671 567.752L706.846 567.647L695.323 567.189L691.606 567.049L691.766 574.78L674.856 586.984C673.57 587.913 672.822 589.414 672.855 591Z" fill="#2F2E41"/>
<path d="M645.132 246.096L704.623 244.443L701.318 249.401L708.845 256.837C708.845 256.837 736.021 294.019 727.758 327.896C719.495 361.773 724.147 562.051 724.147 562.051L675.703 556.771L681.074 354.75L641.413 430.766L652.945 554L611.668 553.879L598.448 420.851L645.132 246.096Z" fill="#2F2E41"/>
<path d="M396.269 86.2666C396.493 86.8182 397.266 86.8182 397.49 86.2664C399.051 82.417 401.274 78.1061 403.692 74.8117C404.079 74.2842 403.546 73.5794 402.93 73.802L397.747 75.6772V43.5908H396.012V75.6772L390.827 73.8018C390.212 73.5792 389.678 74.284 390.065 74.8115C392.483 78.106 394.706 82.417 396.269 86.2666Z" fill="#3F3D56"/>
<path d="M430.26 119.304C430.092 119.875 430.697 120.356 431.216 120.063C434.832 118.02 439.254 116.026 443.197 114.95C443.828 114.778 443.848 113.894 443.228 113.686L438.003 111.931L457.958 86.8041L456.599 85.725L436.644 110.852L433.75 106.158C433.407 105.601 432.55 105.821 432.525 106.475C432.37 110.559 431.43 115.318 430.26 119.304Z" fill="#3F3D56"/>
<path d="M556.996 177.929L589.037 174.236L593.701 192.246L559.686 194.945C558.962 195.695 558.118 196.353 557.16 196.886C551.948 199.781 545.375 197.903 542.48 192.691C539.584 187.479 541.462 180.907 546.674 178.011C549.998 176.165 553.872 176.267 556.996 177.929Z" fill="#FFB6B6"/>
<path d="M710.414 136.39L697.874 117.36C695.594 119.17 693.594 120.99 692.084 122.6L689.484 124.39L681.084 131.9L657.304 153.13L649.394 160.2L640.564 161.75L621.074 165.18L591.558 173.122L569.824 174.53C569.814 174.97 569.814 175.63 569.814 176.45C569.804 180.72 569.904 189.36 570.744 194.07C571.034 195.71 571.414 196.87 571.914 197.22C572.074 197.33 588.718 192.132 589.558 192.122C596.328 192.112 607.644 193.97 630.474 191C644.034 189.22 655.974 187.6 660.994 186.91L661.104 186.89L664.734 185.13L704.584 165.83L716.614 160C715.614 151.94 713.544 143.99 710.414 136.39Z" fill="#950D51"/>
<path d="M22.69 27.9409C10.1587 27.9409 0 38.0996 0 50.631V434.941H2V185.621C2 99.641 71.7 29.9409 157.68 29.9409L555.364 29.5773L555 27.9409H22.69Z" fill="#3F3D56"/>
<path d="M127.706 91.7963C132.377 91.7963 136.163 87.9257 136.163 83.1512C136.163 78.3767 132.377 74.5061 127.706 74.5061C123.036 74.5061 119.25 78.3767 119.25 83.1512C119.25 87.9257 123.036 91.7963 127.706 91.7963Z" fill="#3F3D56"/>
<path d="M156.92 91.7963C161.59 91.7963 165.376 87.9257 165.376 83.1512C165.376 78.3767 161.59 74.5061 156.92 74.5061C152.249 74.5061 148.463 78.3767 148.463 83.1512C148.463 87.9257 152.249 91.7963 156.92 91.7963Z" fill="#3F3D56"/>
<path d="M186.134 91.7963C190.804 91.7963 194.59 87.9257 194.59 83.1512C194.59 78.3767 190.804 74.5061 186.134 74.5061C181.463 74.5061 177.677 78.3767 177.677 83.1512C177.677 87.9257 181.463 91.7963 186.134 91.7963Z" fill="#3F3D56"/>
<path d="M333.514 185C320.982 185 310.824 195.159 310.824 207.69L310.823 372H312.823V342.68C312.824 256.7 382.524 187 468.504 187L613.187 186.637L612.824 185L333.514 185Z" fill="#F2F2F2"/>
<path d="M417.527 286.973C416.424 286.973 415.527 287.87 415.527 288.973V319.973C415.527 321.076 416.424 321.973 417.527 321.973C418.63 321.973 419.527 321.076 419.527 319.973V288.973C419.527 287.87 418.63 286.973 417.527 286.973Z" fill="#3F3D56"/>
<path d="M437.128 316.844C444.012 316.844 449.592 311.381 449.592 304.643C449.592 297.905 444.012 292.442 437.128 292.442C430.245 292.442 424.665 297.905 424.665 304.643C424.665 311.381 430.245 316.844 437.128 316.844Z" fill="#950D51"/>
<path d="M537.041 300.469L469.956 300.469C467.655 300.469 465.782 298.597 465.782 296.295C465.782 293.994 467.655 292.121 469.956 292.121L537.041 292.121C539.343 292.121 541.215 293.994 541.215 296.295C541.215 298.597 539.343 300.469 537.041 300.469Z" fill="#F2F2F2"/>
<path d="M589.395 314.596L469.956 314.596C467.655 314.596 465.782 312.724 465.782 310.422C465.782 308.121 467.655 306.248 469.956 306.248L589.395 306.248C591.696 306.248 593.569 308.121 593.569 310.422C593.569 312.724 591.696 314.596 589.395 314.596Z" fill="#F2F2F2"/>
<path d="M423.706 233.796C428.377 233.796 432.163 229.926 432.163 225.151C432.163 220.377 428.377 216.506 423.706 216.506C419.036 216.506 415.25 220.377 415.25 225.151C415.25 229.926 419.036 233.796 423.706 233.796Z" fill="#F2F2F2"/>
<path d="M452.92 233.796C457.59 233.796 461.376 229.926 461.376 225.151C461.376 220.377 457.59 216.506 452.92 216.506C448.249 216.506 444.463 220.377 444.463 225.151C444.463 229.926 448.249 233.796 452.92 233.796Z" fill="#F2F2F2"/>
<path d="M482.134 233.796C486.804 233.796 490.59 229.926 490.59 225.151C490.59 220.377 486.804 216.506 482.134 216.506C477.463 216.506 473.677 220.377 473.677 225.151C473.677 229.926 477.463 233.796 482.134 233.796Z" fill="#F2F2F2"/>
<path d="M90.3541 169.406C89.2511 169.406 88.3541 170.302 88.3541 171.406V202.406C88.3541 203.509 89.2511 204.406 90.3541 204.406C91.4572 204.406 92.3541 203.509 92.3541 202.406V171.406C92.3541 170.302 91.4572 169.406 90.3541 169.406Z" fill="#3F3D56"/>
<path d="M109.955 199.277C116.839 199.277 122.419 193.814 122.419 187.076C122.419 180.338 116.839 174.875 109.955 174.875C103.072 174.875 97.4919 180.338 97.4919 187.076C97.4919 193.814 103.072 199.277 109.955 199.277Z" fill="#950D51"/>
<path d="M209.868 182.902H142.783C140.482 182.902 138.609 181.03 138.609 178.728C138.609 176.427 140.482 174.554 142.783 174.554H209.868C212.169 174.554 214.042 176.427 214.042 178.728C214.042 181.03 212.17 182.902 209.868 182.902Z" fill="#F2F2F2"/>
<path d="M262.221 197.029H142.783C140.482 197.029 138.609 195.157 138.609 192.855C138.609 190.554 140.482 188.681 142.783 188.681H262.221C264.523 188.681 266.395 190.554 266.395 192.855C266.395 195.157 264.523 197.029 262.221 197.029Z" fill="#F2F2F2"/>
<path d="M90.3541 255.406C89.2511 255.406 88.3541 256.302 88.3541 257.406V288.406C88.3541 289.509 89.2511 290.406 90.3541 290.406C91.4572 290.406 92.3541 289.509 92.3541 288.406V257.406C92.3541 256.302 91.4572 255.406 90.3541 255.406Z" fill="#3F3D56"/>
<path d="M109.955 285.277C116.839 285.277 122.419 279.814 122.419 273.076C122.419 266.338 116.839 260.875 109.955 260.875C103.072 260.875 97.4919 266.338 97.4919 273.076C97.4919 279.814 103.072 285.277 109.955 285.277Z" fill="#950D51"/>
<path d="M209.868 268.902H142.783C140.482 268.902 138.609 267.03 138.609 264.728C138.609 262.427 140.482 260.554 142.783 260.554H209.868C212.169 260.554 214.042 262.427 214.042 264.728C214.042 267.03 212.17 268.902 209.868 268.902Z" fill="#F2F2F2"/>
<path d="M262.221 283.029H142.783C140.482 283.029 138.609 281.157 138.609 278.855C138.609 276.554 140.482 274.681 142.783 274.681H262.221C264.523 274.681 266.395 276.554 266.395 278.855C266.395 281.157 264.523 283.029 262.221 283.029Z" fill="#F2F2F2"/>
<path d="M90.3541 341.406C89.2511 341.406 88.3541 342.302 88.3541 343.406V374.406C88.3541 375.509 89.2511 376.406 90.3541 376.406C91.4572 376.406 92.3541 375.509 92.3541 374.406V343.406C92.3541 342.302 91.4572 341.406 90.3541 341.406Z" fill="#3F3D56"/>
<path d="M109.955 371.277C116.839 371.277 122.419 365.814 122.419 359.076C122.419 352.338 116.839 346.875 109.955 346.875C103.072 346.875 97.4919 352.338 97.4919 359.076C97.4919 365.814 103.072 371.277 109.955 371.277Z" fill="#950D51"/>
<path d="M209.868 354.902H142.783C140.482 354.902 138.609 353.03 138.609 350.728C138.609 348.427 140.482 346.554 142.783 346.554H209.868C212.169 346.554 214.042 348.427 214.042 350.728C214.042 353.03 212.17 354.902 209.868 354.902Z" fill="#F2F2F2"/>
<path d="M262.221 369.029H142.783C140.482 369.029 138.609 367.157 138.609 364.855C138.609 362.554 140.482 360.681 142.783 360.681H262.221C264.523 360.681 266.395 362.554 266.395 364.855C266.395 367.157 264.523 369.029 262.221 369.029Z" fill="#F2F2F2"/>
<path d="M720.558 278.122C719.321 287.54 655.208 265.242 647.558 261.122C633.248 253.432 648.22 261.319 648.22 261.319L646.558 214.122L644.824 186C644.824 186 643.854 178.53 641.824 169C641.364 166.86 640.874 164.38 640.564 161.75C639.684 154.16 640.354 145.34 647.824 140L673.874 101.16L686.704 100.41L697.874 117.36L710.414 136.39C713.544 143.99 715.614 151.94 716.614 160C717.084 163.77 717.324 167.57 717.324 171.38C717.324 178.09 716.594 184.82 715.114 191.44L707.263 213.45C707.263 213.45 706.276 217.175 709.724 219.26C716.719 223.491 702.558 235.122 711.224 249.53C711.224 249.53 710.414 256.15 714.273 256.73C718.134 257.32 721.079 274.156 720.558 278.122Z" fill="#950D51"/>
<path d="M596.004 300.75L615.028 274.704L631.423 283.495L610.33 310.317C610.39 311.357 610.301 312.424 610.042 313.489C608.634 319.282 602.795 322.837 597.002 321.429C591.208 320.02 587.653 314.182 589.062 308.388C589.96 304.693 592.663 301.917 596.004 300.75Z" fill="#FFB6B6"/>
<path d="M676.348 136.445C672.008 133.323 666.924 131.115 661.332 130.135C653.699 128.804 649.417 139.787 647.735 150.499C646.961 155.464 646.733 160.373 646.999 163.957L646.55 167.091L646.286 183.318L645.666 220.833L626.558 249.122L618.558 268.122L602.21 289.019C602.529 289.326 603.016 289.774 603.617 290.336C606.753 293.236 613.153 299.02 617.188 301.6C618.591 302.49 619.695 302.996 620.291 302.871C620.479 302.83 631.99 291.743 632.558 291.122C636.376 286.966 637.128 281.388 648.673 265.175C659.188 250.419 669.441 235.746 673.146 230.436L673.214 230.341L689.859 175.445L691.372 170.469C692.986 156.841 686.847 143.986 676.348 136.445Z" fill="#950D51"/>
<path d="M666.91 137.268C666.879 137.256 666.851 137.241 666.82 137.229C666.563 137.251 666.309 137.266 666.06 137.268H666.91Z" fill="#2F2E41"/>
<path d="M674.375 94.159C690.439 94.159 703.463 81.1358 703.463 65.0709C703.463 49.006 690.439 35.9828 674.375 35.9828C658.31 35.9828 645.286 49.006 645.286 65.0709C645.286 81.1358 658.31 94.159 674.375 94.159Z" fill="#FFB6B6"/>
<path d="M634.992 56.9859C633.028 42.8845 638.754 38.5705 647.712 37.2925C665.435 28.0818 669.495 30.3971 675.114 31.3968L677.179 30.9525C683.515 29.5892 685.814 30.1708 691.45 32.3012C703.337 36.7833 711.146 48.1489 712.01 60.8225C712.605 69.5593 709.867 70.9195 714.932 78.0148C719.167 83.9383 715.928 92.2523 708.817 93.7823L702.199 103.788C700.587 101.751 699.299 99.6164 697.839 96.9416C697.263 99.3282 697.199 102.061 697.5 104.799C690.91 108.081 683.717 109.439 676.087 109.406C674.86 107.771 673.76 105.949 673.905 103.897C673.482 105.953 672.963 108.002 672.874 110.097C668.074 107.007 664.107 107.915 660.939 112.665C652.939 106.034 652.312 90.8405 661.822 87.0345C669.868 83.8147 657.176 61.2743 648.523 60.8147C648.467 60.8117 646.162 69.5266 646.08 69.3628C644.859 66.9205 645.418 65.5817 643.957 62.9068C643.478 64.9189 643.348 67.1723 643.506 69.4662C641.445 69.0159 639.357 68.357 637.25 67.4787C634.806 64.1596 633.861 60.6823 634.992 56.9859Z" fill="#2F2E41"/>
<path d="M742.857 580.912C744.923 581.041 746.065 578.474 744.502 576.978L744.346 576.36C744.366 576.311 744.387 576.261 744.408 576.212C746.497 571.23 753.578 571.264 755.649 576.253C757.488 580.682 759.829 585.117 760.405 589.799C760.663 591.866 760.547 593.972 760.089 596C764.397 586.589 766.664 576.313 766.664 565.979C766.664 563.383 766.522 560.786 766.231 558.196C765.992 556.078 765.663 553.972 765.236 551.886C762.93 540.609 757.938 529.868 750.736 520.896C747.274 519.004 744.387 516.046 742.643 512.5C742.017 511.221 741.526 509.845 741.293 508.444C741.687 508.495 742.779 502.495 742.482 502.127C743.031 501.294 744.013 500.879 744.613 500.066C747.595 496.023 751.704 496.729 753.849 502.224C758.431 504.536 758.476 508.372 755.664 512.061C753.875 514.407 753.63 517.583 752.06 520.095C752.222 520.302 752.39 520.502 752.551 520.709C755.512 524.507 758.073 528.589 760.232 532.878C759.622 528.111 760.523 522.369 762.058 518.668C763.807 514.451 767.083 510.899 769.969 507.253C773.435 502.874 780.542 504.785 781.153 510.336C781.159 510.39 781.165 510.444 781.17 510.497C780.742 510.739 780.322 510.996 779.912 511.267C777.572 512.815 778.381 516.441 781.153 516.869L781.215 516.879C781.06 518.422 780.796 519.953 780.408 521.458C784.11 535.774 776.118 540.988 764.707 541.222C764.455 541.351 764.209 541.481 763.957 541.603C765.114 544.859 766.037 548.198 766.722 551.582C767.335 554.573 767.762 557.595 768.001 560.631C768.298 564.461 768.272 568.311 767.949 572.134L767.968 571.999C768.789 567.788 771.075 563.854 774.395 561.128C779.341 557.066 786.328 555.57 791.663 552.304C794.232 550.732 797.523 552.764 797.074 555.741L797.053 555.884C796.258 556.207 795.483 556.581 794.734 557.001C794.305 557.243 793.885 557.5 793.475 557.771C791.136 559.318 791.944 562.945 794.716 563.373L794.779 563.383C794.824 563.389 794.863 563.396 794.908 563.402C793.545 566.638 791.647 569.641 789.27 572.231C786.955 584.728 777.014 585.914 766.379 582.275H766.373C765.21 587.339 763.512 592.286 761.329 597.001H743.308C743.244 596.801 743.186 596.594 743.128 596.394C744.794 596.497 746.473 596.4 748.114 596.097C746.777 594.456 745.44 592.803 744.103 591.162C744.071 591.13 744.045 591.098 744.019 591.065C743.341 590.226 742.656 589.393 741.978 588.553L741.977 588.552C741.935 585.974 742.245 583.405 742.857 580.912Z" fill="#F2F2F2"/>
<path d="M541.306 597.055C541.306 597.715 541.836 598.245 542.496 598.245H795.786C796.446 598.245 796.976 597.715 796.976 597.055C796.976 596.395 796.446 595.865 795.786 595.865H542.496C541.836 595.865 541.306 596.395 541.306 597.055Z" fill="#CCCCCC"/>
<path d="M414.027 140.716H380.305C378.211 140.716 376.508 139.013 376.508 136.919C372.05 123.888 372.138 111.118 376.508 98.5961C376.508 96.5025 378.212 94.7992 380.305 94.7992H414.027C416.12 94.7992 417.824 96.5025 417.824 98.5961V136.919C417.824 139.013 416.12 140.716 414.027 140.716Z" fill="#E6E6E6"/>
<path d="M387.53 95.9305C382.068 95.9305 377.64 100.359 377.64 105.821V136.106C377.64 138.027 379.197 139.585 381.118 139.585H399.766C409.114 139.585 416.692 132.007 416.692 122.659V99.4092C416.692 97.4879 415.135 95.9305 413.214 95.9305H387.53Z" fill="white"/>
<path d="M405.019 107.067H389.231C388.833 107.067 388.509 106.743 388.509 106.345C388.509 105.947 388.833 105.624 389.231 105.624H405.019C405.417 105.624 405.741 105.947 405.741 106.345C405.741 106.743 405.417 107.067 405.019 107.067Z" fill="#E6E6E6"/>
<path d="M405.019 122.46H389.231C388.833 122.46 388.509 122.136 388.509 121.738C388.509 121.34 388.833 121.016 389.231 121.016H405.019C405.417 121.016 405.741 121.34 405.741 121.738C405.741 122.136 405.417 122.46 405.019 122.46Z" fill="#E6E6E6"/>
<path d="M413.491 114.769H380.759C380.361 114.769 380.037 114.445 380.037 114.047C380.037 113.649 380.361 113.325 380.759 113.325H413.491C413.889 113.325 414.213 113.649 414.213 114.047C414.213 114.445 413.889 114.769 413.491 114.769Z" fill="#E6E6E6"/>
<path d="M413.877 128.718H400.219C399.821 128.718 399.497 128.395 399.497 127.997C399.497 127.599 399.821 127.275 400.219 127.275H413.877C414.275 127.275 414.599 127.599 414.599 127.997C414.599 128.395 414.275 128.718 413.877 128.718Z" fill="#E6E6E6"/>
</g>
<defs>
<clipPath id="clip0_21_460">
<rect width="797.116" height="598.245" fill="white"/>
</clipPath>
</defs>
</svg>
